<svg xmlns="http://www.w3.org/2000/svg" width="512" height="512" viewBox="0 0 512 512" fill="none" role="img" aria-labelledby="01-clover-crab-title 01-clover-crab-desc"><title id="01-clover-crab-title">Clover the crab</title><desc id="01-clover-crab-desc">A copper reef crab with a broad carapace, tiny watchful eyes and articulated claws. Deep Water edition, editable vector on a transparent background.</desc><defs><linearGradient id="01-clover-crab-orange" x1=".22" y1="0" x2=".72" y2="1"><stop offset="0.0" stop-color="#e6b681"/><stop offset="0.5" stop-color="#c5805d"/><stop offset="1.0" stop-color="#7c554b"/></linearGradient><linearGradient id="01-clover-crab-gold" x1=".22" y1="0" x2=".72" y2="1"><stop offset="0.0" stop-color="#efe0ae"/><stop offset="0.5" stop-color="#c1ac70"/><stop offset="1.0" stop-color="#86794e"/></linearGradient><linearGradient id="01-clover-crab-coral" x1=".22" y1="0" x2=".72" y2="1"><stop offset="0.0" stop-color="#dda08e"/><stop offset="0.5" stop-color="#b7736b"/><stop offset="1.0" stop-color="#6e505e"/></linearGradient><linearGradient id="01-clover-crab-blue" x1=".22" y1="0" x2=".72" y2="1"><stop offset="0.0" stop-color="#97c9da"/><stop offset="0.5" stop-color="#508eae"/><stop offset="1.0" stop-color="#285575"/></linearGradient><linearGradient id="01-clover-crab-tang" x1=".22" y1="0" x2=".72" y2="1"><stop offset="0.0" stop-color="#7abed6"/><stop offset="0.5" stop-color="#317caa"/><stop offset="1.0" stop-color="#173c66"/></linearGradient><linearGradient id="01-clover-crab-navy" x1=".22" y1="0" x2=".72" y2="1"><stop offset="0.0" stop-color="#658da3"/><stop offset="0.5" stop-color="#2d536f"/><stop offset="1.0" stop-color="#142f4a"/></linearGradient><linearGradient id="01-clover-crab-green" x1=".22" y1="0" x2=".72" y2="1"><stop offset="0.0" stop-color="#a9c6ac"/><stop offset="0.5" stop-color="#6c998f"/><stop offset="1.0" stop-color="#376c75"/></linearGradient><linearGradient id="01-clover-crab-shellgreen" x1=".22" y1="0" x2=".72" y2="1"><stop offset="0.0" stop-color="#a6bda2"/><stop offset="0.5" stop-color="#72938b"/><stop offset="1.0" stop-color="#355e68"/></linearGradient><linearGradient id="01-clover-crab-mint" x1=".22" y1="0" x2=".72" y2="1"><stop offset="0.0" stop-color="#bee0cf"/><stop offset="0.5" stop-color="#74b2ae"/><stop offset="1.0" stop-color="#386f80"/></linearGradient><linearGradient id="01-clover-crab-white" x1=".22" y1="0" x2=".72" y2="1"><stop offset="0.0" stop-color="#ebf1eb"/><stop offset="0.5" stop-color="#a8c7d2"/><stop offset="1.0" stop-color="#5b87a4"/></linearGradient><linearGradient id="01-clover-crab-purple" x1=".22" y1="0" x2=".72" y2="1"><stop offset="0.0" stop-color="#c5d5d6"/><stop offset="0.5" stop-color="#819bad"/><stop offset="1.0" stop-color="#506584"/></linearGradient><linearGradient id="01-clover-crab-jelly" x1=".22" y1="0" x2=".72" y2="1"><stop offset="0.0" stop-color="#daf2ee"/><stop offset="0.5" stop-color="#91c3d0"/><stop offset="1.0" stop-color="#587ca9"/></linearGradient><linearGradient id="01-clover-crab-pearl" x1=".22" y1="0" x2=".72" y2="1"><stop offset="0.0" stop-color="#f4f0df"/><stop offset="0.5" stop-color="#c9dad7"/><stop offset="1.0" stop-color="#7ba9b7"/></linearGradient><linearGradient id="01-clover-crab-glass" x1=".22" y1="0" x2=".72" y2="1"><stop offset="0.0" stop-color="#cce7df"/><stop offset="0.5" stop-color="#74aaba"/><stop offset="1.0" stop-color="#385f7c"/></linearGradient><linearGradient id="01-clover-crab-sand" x1=".22" y1="0" x2=".72" y2="1"><stop offset="0.0" stop-color="#e1d5b3"/><stop offset="0.5" stop-color="#b6a58c"/><stop offset="1.0" stop-color="#7c7773"/></linearGradient><linearGradient id="01-clover-crab-wood" x1=".22" y1="0" x2=".72" y2="1"><stop offset="0.0" stop-color="#c0ab8c"/><stop offset="0.5" stop-color="#968274"/><stop offset="1.0" stop-color="#5c5554"/></linearGradient><linearGradient id="01-clover-crab-ink" x1=".22" y1="0" x2=".72" y2="1"><stop offset="0.0" stop-color="#385774"/><stop offset="0.5" stop-color="#18364f"/><stop offset="1.0" stop-color="#0a1e33"/></linearGradient><linearGradient id="01-clover-crab-iris" x1=".22" y1="0" x2=".72" y2="1"><stop offset="0.0" stop-color="#b3d8d7"/><stop offset="0.5" stop-color="#427f9b"/><stop offset="1.0" stop-color="#173d5a"/></linearGradient><linearGradient id="01-clover-crab-irisAmber" x1=".22" y1="0" x2=".72" y2="1"><stop offset="0.0" stop-color="#d0bc8d"/><stop offset="0.5" stop-color="#7b806a"/><stop offset="1.0" stop-color="#304b51"/></linearGradient><linearGradient id="01-clover-crab-irisViolet" x1=".22" y1="0" x2=".72" y2="1"><stop offset="0.0" stop-color="#c1c5d9"/><stop offset="0.5" stop-color="#7d8da8"/><stop offset="1.0" stop-color="#405674"/></linearGradient><linearGradient id="01-clover-crab-foam" x1=".22" y1="0" x2=".72" y2="1"><stop offset="0.0" stop-color="#f3f3e4"/><stop offset="0.5" stop-color="#c2e2e4"/><stop offset="1.0" stop-color="#74b5cb"/></linearGradient><radialGradient id="01-clover-crab-bell"><stop stop-color="#c4e5ea" stop-opacity=".75"/><stop offset=".6" stop-color="#6fb1c4" stop-opacity=".48"/><stop offset="1" stop-color="#6496b7" stop-opacity=".76"/></radialGradient></defs><g stroke-linecap="round" stroke-linejoin="round"><g transform="" class="claw"><path d="M174 252 L119 228 L73 259 L45 280 L76 247 L116 213 L170 232Z" fill="url(#01-clover-crab-orange)" stroke="#684e47" stroke-width="1" /><path d="M173 268 L112 275 L79 321 L58 339 L71 312 L108 261 L169 248Z" fill="url(#01-clover-crab-orange)" stroke="#684e47" stroke-width="1" /><path d="M182 290 L139 307 L126 357 L101 383 L114 346 L123 296 L169 276Z" fill="url(#01-clover-crab-orange)" stroke="#684e47" stroke-width="1" /><path d="M207 300 L188 333 L185 370 L169 398 L174 359 L171 326 L185 300Z" fill="url(#01-clover-crab-orange)" stroke="#684e47" stroke-width="1" /><path d="M167 229 L126 196 L108 159 L124 150 L146 186 L184 210Z" fill="url(#01-clover-crab-orange)" stroke="#684e47" stroke-width="1.4" /><path d="M111 173 C67 168 54 132 67 106 L91 88 Q99 80 101 88 L85 122 Q85 133 97 135 L126 114 Q133 108 137 115 C151 143 143 165 111 173Z" fill="url(#01-clover-crab-orange)" stroke="#684e47" stroke-width="1.4" /><path d="M72 113 Q63 143 90 157 M91 96 L82 116" fill="none" stroke="#edc79c" stroke-width="2" opacity=".7"/><path d="M81 158 Q112 166 134 145" fill="none" stroke="#725044" stroke-width="1.2" /></g><g transform="translate(512 0) scale(-1 1)" class="claw"><path d="M174 252 L119 228 L73 259 L45 280 L76 247 L116 213 L170 232Z" fill="url(#01-clover-crab-orange)" stroke="#684e47" stroke-width="1" /><path d="M173 268 L112 275 L79 321 L58 339 L71 312 L108 261 L169 248Z" fill="url(#01-clover-crab-orange)" stroke="#684e47" stroke-width="1" /><path d="M182 290 L139 307 L126 357 L101 383 L114 346 L123 296 L169 276Z" fill="url(#01-clover-crab-orange)" stroke="#684e47" stroke-width="1" /><path d="M207 300 L188 333 L185 370 L169 398 L174 359 L171 326 L185 300Z" fill="url(#01-clover-crab-orange)" stroke="#684e47" stroke-width="1" /><path d="M167 229 L126 196 L108 159 L124 150 L146 186 L184 210Z" fill="url(#01-clover-crab-orange)" stroke="#684e47" stroke-width="1.4" /><path d="M111 173 C67 168 54 132 67 106 L91 88 Q99 80 101 88 L85 122 Q85 133 97 135 L126 114 Q133 108 137 115 C151 143 143 165 111 173Z" fill="url(#01-clover-crab-orange)" stroke="#684e47" stroke-width="1.4" /><path d="M72 113 Q63 143 90 157 M91 96 L82 116" fill="none" stroke="#edc79c" stroke-width="2" opacity=".7"/><path d="M81 158 Q112 166 134 145" fill="none" stroke="#725044" stroke-width="1.2" /></g><path d="M134 257 L145 237 L151 220 L170 223 L181 200 L202 209 Q254 189 306 210 L328 200 L339 222 L359 220 L365 239 L378 257 C370 302 320 327 256 326 C191 326 142 302 134 257Z" fill="url(#01-clover-crab-orange)" stroke="#74534b" stroke-width="1.5" /><path d="M151 251 C183 213 307 208 355 248 Q320 288 258 294 Q189 294 151 251Z" fill="#d7a278" opacity=".45"/><path d="M178 231 Q209 216 232 218 M280 219 Q311 218 334 233 M245 274 L257 280 L270 273" fill="none" stroke="#efd3ae" stroke-width="1.5" opacity=".45"/><path d="M228 211 L221 189 M286 212 L292 190" fill="none" stroke="#916a52" stroke-width="8" /><ellipse cx="220" cy="185" rx="8" ry="8" fill="#bdd5d0" opacity=".4"/><ellipse cx="220" cy="185" rx="6" ry="6" fill="#0d263b" /><ellipse cx="218.5" cy="183.2" rx="1.3800000000000001" ry="1.3800000000000001" fill="#dceced" /><ellipse cx="293" cy="186" rx="8" ry="8" fill="#bdd5d0" opacity=".4"/><ellipse cx="293" cy="186" rx="6" ry="6" fill="#0d263b" /><ellipse cx="291.5" cy="184.2" rx="1.3800000000000001" ry="1.3800000000000001" fill="#dceced" /><path d="M240 290 Q256 295 273 289" fill="none" stroke="#795448" stroke-width="1.5" /><g opacity=".5"><ellipse cx="175" cy="247" rx="2" ry="2" fill="#f3ce9d" /><ellipse cx="187" cy="240" rx="1.5" ry="1.5" fill="#f3ce9d" /><ellipse cx="199" cy="237" rx="1.5" ry="1.5" fill="#f3ce9d" /><ellipse cx="323" cy="242" rx="2" ry="2" fill="#f3ce9d" /><ellipse cx="337" cy="252" rx="1.5" ry="1.5" fill="#f3ce9d" /><ellipse cx="309" cy="234" rx="1.5" ry="1.5" fill="#f3ce9d" /><ellipse cx="247" cy="233" rx="1" ry="1" fill="#f3ce9d" /><ellipse cx="260" cy="230" rx="1" ry="1" fill="#f3ce9d" /><ellipse cx="274" cy="233" rx="1" ry="1" fill="#f3ce9d" /></g></g></svg>