<svg xmlns="http://www.w3.org/2000/svg" width="512" height="512" viewBox="0 0 512 512" fill="none" role="img" aria-labelledby="11-seaweed-garden-title 11-seaweed-garden-desc" preserveAspectRatio="xMidYMid meet">
  <title id="11-seaweed-garden-title">Seaweed garden</title>
  <desc id="11-seaweed-garden-desc">Sweeping jade kelp and translucent seafoam blades. Deep Water edition, editable vector on a transparent background.</desc>
  <defs>
    <linearGradient id="11-seaweed-garden-green" x1=".22" y1="0" x2=".72" y2="1">
      <stop offset="0.0" stop-color="#a9c6ac" />
      <stop offset="0.5" stop-color="#6c998f" />
      <stop offset="1.0" stop-color="#376c75" />
    </linearGradient>
    <linearGradient id="11-seaweed-garden-mint" x1=".22" y1="0" x2=".72" y2="1">
      <stop offset="0.0" stop-color="#bee0cf" />
      <stop offset="0.5" stop-color="#74b2ae" />
      <stop offset="1.0" stop-color="#386f80" />
    </linearGradient>
  </defs>
  <g stroke-linecap="round" stroke-linejoin="round">
    <ellipse cx="254" cy="442" rx="107" ry="16" fill="#174e58" opacity=".22" />
    <path d="M203 433 C183 342 119 243 142 135 M286 431 C327 353 386 282 392 226 M272 407 C325 286 293 231 322 119" fill="none" stroke="#3f9c94" stroke-width="2" opacity=".72" />
    <path d="M251 440 C165 358 229 268 181 169 C219 162 240 207 232 264 C223 341 265 370 251 440Z" fill="url(#11-seaweed-garden-green)" stroke="#316d69" stroke-width="2" />
    <path d="M241 440 C165 422 146 365 155 317 C160 287 128 247 101 234 C156 220 202 267 190 324 C179 378 231 391 241 440Z" fill="url(#11-seaweed-garden-mint)" stroke="#316d69" stroke-width="2" />
    <path d="M254 440 C288 363 233 330 245 268 C259 204 218 175 258 119 C274 96 278 80 279 65 C318 108 285 151 299 185 C316 226 268 257 280 297 C297 348 292 399 254 440Z" fill="url(#11-seaweed-garden-green)" stroke="#316d69" stroke-width="2" />
    <path d="M265 440 C314 388 289 335 321 281 C350 231 316 193 380 156 C358 213 392 246 358 285 C325 331 347 408 265 440Z" fill="url(#11-seaweed-garden-mint)" stroke="#316d69" stroke-width="2" />
    <path d="M241 439 C176 413 151 399 123 350 Q129 382 138 394 Q106 386 98 359 C72 394 117 441 241 449Z" fill="url(#11-seaweed-garden-mint)" stroke="#316d69" stroke-width="2" />
    <path d="M274 440 C331 409 315 387 356 363 C382 349 366 320 399 306 C416 343 378 363 382 391 C377 426 316 452 274 440Z" fill="url(#11-seaweed-garden-green)" stroke="#316d69" stroke-width="2" />
    <path d="M253 431 C263 374 267 339 260 290 C253 236 285 220 274 184 C263 141 279 125 278 96" fill="none" stroke="#d9f2b7" stroke-width="2" opacity=".46" />
    <path d="M277 428 C326 374 310 329 342 279 C370 231 352 215 367 188" fill="none" stroke="#d9f2b7" stroke-width="2" opacity=".46" />
    <path d="M234 431 C178 374 189 350 175 291 Q157 254 127 246" fill="none" stroke="#d9f2b7" stroke-width="2" opacity=".46" />
    <path d="M287 436 Q356 402 379 338" fill="none" stroke="#d9f2b7" stroke-width="2" opacity=".46" />
    <path d="M251 430 Q216 357 215 278 Q226 219 195 181" fill="none" stroke="#d9f2b7" stroke-width="2" opacity=".46" />
    <g opacity=".3">
      <ellipse cx="347" cy="264" rx="4" ry="4" fill="#d4edbe" />
      <ellipse cx="352" cy="250" rx="3" ry="3" fill="#d4edbe" />
      <ellipse cx="329" cy="309" rx="4" ry="4" fill="#d4edbe" />
      <ellipse cx="276" cy="214" rx="4" ry="4" fill="#d4edbe" />
      <ellipse cx="270" cy="239" rx="3" ry="3" fill="#d4edbe" />
      <ellipse cx="272" cy="162" rx="3" ry="3" fill="#d4edbe" />
      <ellipse cx="181" cy="321" rx="3" ry="3" fill="#d4edbe" />
      <ellipse cx="174" cy="300" rx="3" ry="3" fill="#d4edbe" />
      <ellipse cx="366" cy="394" rx="3" ry="3" fill="#d4edbe" />
    </g>
  </g>
</svg>
