<svg xmlns="http://www.w3.org/2000/svg" width="512" height="512" viewBox="0 0 512 512" fill="none" role="img" aria-labelledby="12-little-wave-title 12-little-wave-desc" preserveAspectRatio="xMidYMid meet">
  <title id="12-little-wave-title">Little wave</title>
  <desc id="12-little-wave-desc">A sculptural cobalt wave with an ivory foam edge. Deep Water edition, editable vector on a transparent background.</desc>
  <defs>
    <linearGradient id="12-little-wave-blue" x1=".22" y1="0" x2=".72" y2="1">
      <stop offset="0.0" stop-color="#97c9da" />
      <stop offset="0.5" stop-color="#508eae" />
      <stop offset="1.0" stop-color="#285575" />
    </linearGradient>
    <linearGradient id="12-little-wave-tang" x1=".22" y1="0" x2=".72" y2="1">
      <stop offset="0.0" stop-color="#7abed6" />
      <stop offset="0.5" stop-color="#317caa" />
      <stop offset="1.0" stop-color="#173c66" />
    </linearGradient>
    <linearGradient id="12-little-wave-foam" x1=".22" y1="0" x2=".72" y2="1">
      <stop offset="0.0" stop-color="#f3f3e4" />
      <stop offset="0.5" stop-color="#c2e2e4" />
      <stop offset="1.0" stop-color="#74b5cb" />
    </linearGradient>
  </defs>
  <g stroke-linecap="round" stroke-linejoin="round">
    <path d="M64 350 C151 374 168 244 220 180 C276 111 370 98 423 164 C453 201 443 249 410 266 C385 279 365 254 382 229 C397 204 365 181 336 201 C294 229 296 292 328 318 C360 344 402 330 446 310 C420 393 367 429 280 433 C171 439 105 407 64 350Z" fill="url(#12-little-wave-tang)" stroke="#276988" stroke-width="2" />
    <path d="M88 371 Q171 393 218 287 C238 239 250 183 301 161 C358 137 411 162 417 198 C393 169 357 169 322 194 C265 233 270 305 310 345 Q363 391 431 335 C396 404 331 423 260 410 Q142 417 88 371Z" fill="url(#12-little-wave-blue)" opacity=".85" />
    <path d="M69 351 C143 364 160 252 210 187 C264 115 361 87 421 160 Q454 198 430 239 C421 259 403 266 393 253 C379 239 401 223 393 207 C380 177 344 183 326 197 C301 195 302 169 281 180 C263 188 274 210 252 214 C237 217 235 207 224 226 C209 254 199 291 180 318 C150 361 113 381 69 351Z" fill="url(#12-little-wave-foam)" stroke="#81cbd9" stroke-width="2.0" />
    <path d="M82 354 C142 369 164 297 187 257" fill="none" stroke="#d5dfd8" stroke-width="2" opacity=".32" clip-path="url(#12-little-wave-water-interior)" />
    <path d="M225 362 Q282 422 365 379 M214 376 Q263 416 311 418 M340 315 Q374 337 409 318" fill="none" stroke="#93dfec" stroke-width="2" opacity=".58" clip-path="url(#12-little-wave-water-interior)" />
    <path d="M261 242 C243 276 245 319 267 343" fill="none" stroke="#167bba" stroke-width="2" opacity=".6" clip-path="url(#12-little-wave-water-interior)" />
    <ellipse cx="221" cy="133" rx="12" ry="5" fill="url(#12-little-wave-foam)" transform="rotate(-30 221 133)" />
    <ellipse cx="256" cy="110" rx="8" ry="4" fill="url(#12-little-wave-foam)" transform="rotate(-25 256 110)" />
    <ellipse cx="350" cy="95" rx="6" ry="4" fill="url(#12-little-wave-foam)" transform="rotate(20 350 95)" />
    <ellipse cx="451" cy="213" rx="5" ry="9" fill="url(#12-little-wave-foam)" transform="rotate(12 451 213)" />
    <ellipse cx="454" cy="246" rx="4" ry="6" fill="url(#12-little-wave-foam)" transform="rotate(20 454 246)" />
    <ellipse cx="161" cy="212" rx="5" ry="9" fill="url(#12-little-wave-foam)" transform="rotate(30 161 212)" />
    <g opacity=".72">
      <ellipse cx="181" cy="340" rx="4" ry="4" fill="#d3faff" />
      <ellipse cx="174" cy="353" rx="3" ry="3" fill="#d3faff" />
      <ellipse cx="204" cy="319" rx="3" ry="3" fill="#d3faff" />
      <ellipse cx="230" cy="367" rx="4" ry="4" fill="#d3faff" />
      <ellipse cx="244" cy="380" rx="2" ry="2" fill="#d3faff" />
      <ellipse cx="130" cy="379" rx="3" ry="3" fill="#d3faff" />
      <ellipse cx="295" cy="401" rx="4" ry="4" fill="#d3faff" />
      <ellipse cx="387" cy="371" rx="3" ry="3" fill="#d3faff" />
    </g>
    <defs>
      <clipPath id="12-little-wave-water-interior" clipPathUnits="userSpaceOnUse">
        <path d="M64 350 C151 374 168 244 220 180 C276 111 370 98 423 164 C453 201 443 249 410 266 C385 279 365 254 382 229 C397 204 365 181 336 201 C294 229 296 292 328 318 C360 344 402 330 446 310 C420 393 367 429 280 433 C171 439 105 407 64 350Z" />
      </clipPath>
    </defs>
  </g>
</svg>
