<svg xmlns="http://www.w3.org/2000/svg" width="512" height="512" viewBox="0 0 512 512" fill="none" role="img" aria-labelledby="16-message-bottle-title 16-message-bottle-desc" preserveAspectRatio="xMidYMid meet">
  <title id="16-message-bottle-title">Message bottle</title>
  <desc id="16-message-bottle-desc">A weathered sea-glass bottle with a parchment note and a knotted cord. Deep Water edition, editable vector on a transparent background.</desc>
  <defs>
    <linearGradient id="16-message-bottle-white" x1=".22" y1="0" x2=".72" y2="1">
      <stop offset="0.0" stop-color="#ebf1eb" />
      <stop offset="0.5" stop-color="#a8c7d2" />
      <stop offset="1.0" stop-color="#5b87a4" />
    </linearGradient>
    <linearGradient id="16-message-bottle-glass" x1=".22" y1="0" x2=".72" y2="1">
      <stop offset="0.0" stop-color="#cce7df" />
      <stop offset="0.5" stop-color="#74aaba" />
      <stop offset="1.0" stop-color="#385f7c" />
    </linearGradient>
    <linearGradient id="16-message-bottle-sand" x1=".22" y1="0" x2=".72" y2="1">
      <stop offset="0.0" stop-color="#e1d5b3" />
      <stop offset="0.5" stop-color="#b6a58c" />
      <stop offset="1.0" stop-color="#7c7773" />
    </linearGradient>
    <linearGradient id="16-message-bottle-wood" x1=".22" y1="0" x2=".72" y2="1">
      <stop offset="0.0" stop-color="#c0ab8c" />
      <stop offset="0.5" stop-color="#968274" />
      <stop offset="1.0" stop-color="#5c5554" />
    </linearGradient>
  </defs>
  <g stroke-linecap="round" stroke-linejoin="round">
    <g transform="rotate(14 256 256)">
      <path d="M212 118 L296 118 Q283 138 296 169 L336 203 Q355 219 355 248 L352 395 Q352 435 316 440 L194 440 Q160 434 160 399 L160 246 Q160 218 184 200 L219 172 Q228 146 212 118Z" fill="url(#16-message-bottle-glass)" stroke="#497e91" stroke-width="2" fill-opacity=".88" />
      <path d="M216 132 L219 155 Q224 181 196 204 Q173 224 174 251 L174 392 Q173 422 195 428 L316 428 Q340 425 340 398 L341 249 Q341 225 322 211 L282 175 Q269 151 284 131Z" fill="none" stroke="#c5f1eb" stroke-width="2" opacity=".75" />
      <path d="M179 338 Q223 324 263 344 Q303 354 341 337 L341 395 Q341 425 317 428 L195 428 Q175 423 175 397Z" fill="#429fae" opacity=".4" />
      <path d="M200 244 L304 230 L318 387 L212 399Z" fill="url(#16-message-bottle-sand)" stroke="#9c987f" stroke-width="2.0" />
      <path d="M200 244 L212 257 L305 245 L304 230Z" fill="#ffefc3" />
      <path d="M222 283 L289 275 L295 321 L228 328Z" fill="url(#16-message-bottle-white)" stroke="#527c87" stroke-width="2" />
      <path d="M224 285 L260 304 L289 278 M229 324 L246 302 M290 318 L273 301" fill="none" stroke="#527c87" stroke-width="2" />
      <path d="M234 353 L287 347 M235 365 L273 361" fill="none" stroke="#b49975" stroke-width="2" />
      <path d="M207 102 L299 102 L299 125 L211 126Z" fill="url(#16-message-bottle-white)" stroke="#528493" stroke-width="2" />
      <path d="M215 105 L210 65 Q253 50 297 65 L292 105Z" fill="url(#16-message-bottle-wood)" stroke="#886b55" stroke-width="2" />
      <ellipse cx="253" cy="64" rx="43" ry="11" fill="url(#16-message-bottle-sand)" stroke="#886b55" stroke-width="2.0" />
      <path d="M226 77 L229 96 M244 79 L246 91 M277 76 L275 96" fill="none" stroke="#986c4a" stroke-width="2" opacity=".6" />
      <path d="M205 133 Q251 147 300 131 M213 141 Q258 157 294 141" fill="none" stroke="#d0b582" stroke-width="2" />
      <path d="M285 146 Q322 173 299 200 Q281 205 283 187 Q287 169 306 164 Q326 166 314 187 Q304 202 296 207 L309 228" fill="none" stroke="#d0b582" stroke-width="2" />
      <path d="M189 225 Q178 235 182 287 M183 301 L183 316" fill="none" stroke="#d5dfd8" stroke-width="2" opacity=".32" />
      <path d="M327 362 L327 394 Q326 411 312 414" fill="none" stroke="#c2f8f4" stroke-width="2" opacity=".55" />
      <g opacity=".5">
        <ellipse cx="197" cy="365" rx="3" ry="3" fill="#eaffff" />
        <ellipse cx="324" cy="277" rx="4" ry="4" fill="#eaffff" />
        <ellipse cx="316" cy="214" rx="3" ry="3" fill="#eaffff" />
        <ellipse cx="190" cy="391" rx="2" ry="2" fill="#eaffff" />
      </g>
    </g>
  </g>
</svg>
